<svg id="_001-Home" data-name="001-Home" xmlns="http://www.w3.org/2000/svg" viewBox="0 0 38 43.4"><defs><style>.cls-1,.cls-2{fill:none;stroke:#fff;stroke-miterlimit:10;}.cls-2{stroke-width:2px;}.cls-3{fill:#fff;}</style></defs><path class="cls-1" d="M1148.06,629.64v35.65a3.37,3.37,0,0,0,3.38,3.37h28.12a3.37,3.37,0,0,0,3.38-3.37V640.08a3.38,3.38,0,0,0-1.07-2.46l-11.1-10.44a3.35,3.35,0,0,0-2.31-.92h-17A3.38,3.38,0,0,0,1148.06,629.64Z" transform="translate(-1146.74 -625.76)"/><path class="cls-1" d="M1169.8,626.26v8.55a4.46,4.46,0,0,0,4.45,4.46h8.69" transform="translate(-1146.74 -625.76)"/><line class="cls-1" x1="8.71" y1="0.5" x2="8.71" y2="20.24"/><line class="cls-1" x1="8.71" y1="33.24" x2="8.71" y2="43.24"/><rect class="cls-2" x="1" y="19.74" width="36" height="14"/><path class="cls-3" d="M1162.06,655.93v-1.37h1v1.37Z" transform="translate(-1146.74 -625.76)"/><path class="cls-3" d="M1166.74,648.33h1.14l3,7.6h-1.27l-.74-2.07h-3l-.75,2.07h-1.26Zm1.77,4.65-1.2-3.33-1.2,3.33Z" transform="translate(-1146.74 -625.76)"/><path class="cls-3" d="M1171.78,655.93v-7.6h3.31a2.12,2.12,0,0,1,.94.21,2.3,2.3,0,0,1,.74.57,2.76,2.76,0,0,1,.5.8,2.51,2.51,0,0,1,.17.89,2.61,2.61,0,0,1-.18,1,2.22,2.22,0,0,1-.52.79,2,2,0,0,1-.78.48l1.78,2.89h-1.35l-1.65-2.64H1173v2.64Zm1.21-3.7h2.09a1,1,0,0,0,.59-.2,1.39,1.39,0,0,0,.4-.52,1.67,1.67,0,0,0,.15-.71,1.59,1.59,0,0,0-.17-.72,1.46,1.46,0,0,0-.45-.5,1,1,0,0,0-.59-.19h-2Z" transform="translate(-1146.74 -625.76)"/></svg>