<svg id="_001-Home" data-name="001-Home" xmlns="http://www.w3.org/2000/svg" viewBox="0 0 40 43.15"><defs><style>.cls-1{fill:#fff;}.cls-2{fill:none;stroke:#fff;stroke-miterlimit:10;}</style></defs><path class="cls-1" d="M1185.17,586.32a9.21,9.21,0,0,0-4.26-2.65,9.11,9.11,0,0,0-4.31-.11,9.39,9.39,0,0,0-7,6.85,9.19,9.19,0,0,0,2.5,8.33c1.36,1.46,2.82,2.82,4.24,4.24s2.81,1.45,4.22,0c1.61-1.62,3.33-3.15,4.79-4.9A8.93,8.93,0,0,0,1185.17,586.32Zm-6.72,9.39a3.15,3.15,0,1,1,3.15-3.15A3.15,3.15,0,0,1,1178.45,595.71Z" transform="translate(-1147.49 -583.35)"/><path class="cls-2" d="M1167,609V587h-9.76a9.27,9.27,0,0,0-9.24,9.24v20.52a9.27,9.27,0,0,0,9.24,9.24h19.53a9.26,9.26,0,0,0,9.23-9.24V609Z" transform="translate(-1147.49 -583.35)"/><line class="cls-2" x1="0.5" y1="14.8" x2="19.19" y2="14.8"/><polyline class="cls-2" points="0.5 25.65 19.69 25.65 19.69 42.65"/><line class="cls-2" x1="10.1" y1="25.65" x2="10.1" y2="42.65"/><line class="cls-2" x1="25.12" y1="25.65" x2="33.37" y2="41.67"/></svg>