<svg id="_001-Home" data-name="001-Home" xmlns="http://www.w3.org/2000/svg" viewBox="0 0 69 62"><defs><style>.cls-1,.cls-3{fill:none;stroke:#333;}.cls-1{stroke-miterlimit:10;}.cls-2{fill:#333;}.cls-3{stroke-linecap:round;stroke-linejoin:round;}</style></defs><rect class="cls-1" x="0.5" y="0.5" width="68" height="7"/><polyline class="cls-1" points="5.88 7 5.88 48.62 63.12 48.62 63.12 7"/><rect class="cls-2" x="34" y="49" width="1" height="8"/><circle class="cls-1" cx="34.5" cy="59" r="2.5"/><rect class="cls-2" x="41.72" y="17.5" width="17" height="2" rx="1"/><rect class="cls-2" x="41.72" y="25" width="17" height="2" rx="1"/><rect class="cls-2" x="41.72" y="33" width="17" height="2" rx="1"/><path class="cls-3" d="M1428,454.79v8.38h8.2a8.17,8.17,0,0,1-5.12,7.31c-4.17,1.62-7.77-1.08-7.95-1.21a8.52,8.52,0,0,1,4.87-14.48Z" transform="translate(-1406.12 -435.17)"/><path class="cls-3" d="M1430.5,460.67v-8a12,12,0,0,1,8,8Z" transform="translate(-1406.12 -435.17)"/></svg>