<svg id="_001-Home" data-name="001-Home" xmlns="http://www.w3.org/2000/svg" viewBox="0 0 35.87 43.4"><defs><style>.cls-1{fill:#fff;}.cls-2{fill:none;stroke:#fff;stroke-miterlimit:10;}</style></defs><circle class="cls-1" cx="6.25" cy="28.77" r="2.21"/><circle class="cls-1" cx="12.64" cy="22.87" r="2.21"/><circle class="cls-1" cx="20.51" cy="31.72" r="2.21"/><circle class="cls-1" cx="28.38" cy="21.88" r="2.21"/><polygon class="cls-1" points="20.52 32.48 12.61 23.57 7.32 28.4 6.65 27.67 12.68 22.17 20.5 30.97 28.01 22.1 28.76 22.74 20.52 32.48"/><path class="cls-2" d="M1166.31,502.64v35.65a3.37,3.37,0,0,0,3.37,3.37h28.13a3.37,3.37,0,0,0,3.37-3.37V513.08a3.37,3.37,0,0,0-1.06-2.46L1189,500.18a3.4,3.4,0,0,0-2.32-.92h-17A3.38,3.38,0,0,0,1166.31,502.64Z" transform="translate(-1165.81 -498.76)"/><path class="cls-2" d="M1188,499.26v8.55a4.46,4.46,0,0,0,4.46,4.46h8.68" transform="translate(-1165.81 -498.76)"/></svg>