<svg id="_001-Home" data-name="001-Home" xmlns="http://www.w3.org/2000/svg" viewBox="0 0 92.61 59.76"><defs><style>.cls-1{fill:#fff;}</style></defs><path class="cls-1" d="M1256.14,471.33h-68.55a5.09,5.09,0,0,1-5.1-5.09V423a5.09,5.09,0,0,1,5.1-5.09h68.55a5.1,5.1,0,0,1,5.1,5.09v43.25A5.1,5.1,0,0,1,1256.14,471.33Zm-68.55-51.68a3.34,3.34,0,0,0-3.34,3.34v43.25a3.34,3.34,0,0,0,3.34,3.34h68.55a3.35,3.35,0,0,0,3.34-3.34V423a3.35,3.35,0,0,0-3.34-3.34Z" transform="translate(-1175.5 -417.9)"/><path class="cls-1" d="M1176.72,466.41h90.17a1.22,1.22,0,0,1,1.2,1.43,14.09,14.09,0,0,1-6.55,9.64,1.24,1.24,0,0,1-.64.18h-77.24a1.27,1.27,0,0,1-.47-.09,12.81,12.81,0,0,1-7-6.94,10.94,10.94,0,0,1-.66-2.88A1.23,1.23,0,0,1,1176.72,466.41Z" transform="translate(-1175.5 -417.9)"/><path class="cls-1" d="M1229.57,442.15a2.85,2.85,0,0,1,0,4.93l-6.29,3.63-6.28,3.62a2.84,2.84,0,0,1-4.27-2.46V437.36a2.84,2.84,0,0,1,4.27-2.46l6.28,3.62Z" transform="translate(-1175.5 -417.9)"/></svg>