<svg id="_001-Home" data-name="001-Home" xmlns="http://www.w3.org/2000/svg" viewBox="0 0 59.92 59"><defs><style>.cls-1{fill:#fff;}</style></defs><path class="cls-1" d="M1116.2,399.05h-1.84v-6a4.15,4.15,0,0,1,4.15-4.15h6v1.85h-6a2.31,2.31,0,0,0-2.31,2.3Z" transform="translate(-1113.44 -388.91)"/><path class="cls-1" d="M1173.36,399.05h-1.84v-6a2.31,2.31,0,0,0-2.31-2.3h-6v-1.85h6a4.15,4.15,0,0,1,4.15,4.15Z" transform="translate(-1113.44 -388.91)"/><path class="cls-1" d="M1168.29,447.91h-6v-1.84h6a2.31,2.31,0,0,0,2.3-2.31v-6h1.85v6A4.15,4.15,0,0,1,1168.29,447.91Z" transform="translate(-1113.44 -388.91)"/><path class="cls-1" d="M1123.58,447.91h-6a4.15,4.15,0,0,1-4.15-4.15v-6h1.84v6a2.31,2.31,0,0,0,2.31,2.31h6Z" transform="translate(-1113.44 -388.91)"/><ellipse class="cls-1" cx="30.42" cy="18.9" rx="5.53" ry="5.99"/><circle class="cls-1" cx="16.59" cy="24.89" r="4.61"/><circle class="cls-1" cx="45.17" cy="24.89" r="4.61"/><path class="cls-1" d="M1119.89,431.32h47.94a3.37,3.37,0,0,0,.92-1.85,3.51,3.51,0,0,0-.92-2.76,10.2,10.2,0,0,0-5.53-4.61,10.39,10.39,0,0,0-8.3.92,13.05,13.05,0,0,0-19.36-.65,12.65,12.65,0,0,0-14.75,4.34,3.37,3.37,0,0,0-.92,1.84A3.52,3.52,0,0,0,1119.89,431.32Z" transform="translate(-1113.44 -388.91)"/></svg>