<svg id="_001-Home" data-name="001-Home" xmlns="http://www.w3.org/2000/svg" viewBox="0 0 39.86 49"><defs><style>.cls-1{fill:#fff;}.cls-2{fill:none;stroke:#fff;stroke-miterlimit:10;}</style></defs><path class="cls-1" d="M970.9,448.45a8.53,8.53,0,1,0,8.52,8.53A8.53,8.53,0,0,0,970.9,448.45Zm5.18,9.93H972.3v3.78a1.4,1.4,0,0,1-2.8,0v-3.78h-3.79a1.41,1.41,0,0,1,0-2.81h3.79v-3.78a1.4,1.4,0,1,1,2.8,0v3.78h3.78a1.41,1.41,0,1,1,0,2.81Z" transform="translate(-939.56 -416.5)"/><path class="cls-2" d="M963.56,457a7.49,7.49,0,0,1,11.5-6.34V420.85a3.85,3.85,0,0,0-3.85-3.85H943.92a3.85,3.85,0,0,0-3.86,3.85v35.3a3.86,3.86,0,0,0,3.86,3.85h20.27A7.49,7.49,0,0,1,963.56,457Z" transform="translate(-939.56 -416.5)"/><rect class="cls-1" x="6" y="11" width="24" height="1.89" rx="0.94"/><rect class="cls-1" x="6" y="16.37" width="24" height="1.89" rx="0.94"/><rect class="cls-1" x="6" y="21.74" width="24" height="1.89" rx="0.94"/><rect class="cls-1" x="6" y="27.11" width="24" height="1.89" rx="0.94"/></svg>