<svg id="_001-Home" data-name="001-Home" xmlns="http://www.w3.org/2000/svg" xmlns:xlink="http://www.w3.org/1999/xlink" viewBox="0 0 35.66 23.78"><defs><style>.cls-1{fill:#002776;}.cls-2,.cls-3,.cls-4{fill:none;}.cls-3{clip-path:url(#clip-path);}.cls-4{clip-path:url(#clip-path-2);}.cls-5,.cls-9{fill:#009a3a;}.cls-6{fill:#fdde00;}.cls-7{clip-path:url(#clip-path-3);}.cls-8{fill:#fff;}.cls-9{fill-rule:evenodd;}.cls-10{clip-path:url(#clip-path-4);}</style><clipPath id="clip-path"><rect class="cls-2" x="1413.66" y="321.73" width="0.75" height="0.82"/></clipPath><clipPath id="clip-path-2"><path class="cls-3" d="M1413.68,322.31l.22-.52.47.2-.23.52Zm.38-.25,0,.09.24.1,0-.09Zm0,0"/></clipPath><clipPath id="clip-path-3" transform="translate(-1394 -311.22)"><path class="cls-1" d="M1417.78,323.11a5.95,5.95,0,1,1-6-5.94,6,6,0,0,1,6,5.94Zm0,0"/></clipPath><clipPath id="clip-path-4" transform="translate(-1394 -311.22)"><rect class="cls-4" x="1413.66" y="321.73" width="0.75" height="0.82"/></clipPath></defs><rect class="cls-5" width="35.66" height="23.78"/><path class="cls-6" d="M1397.74,323.11l14.09,9,14.1-9-14.1-9Zm0,0" transform="translate(-1394 -311.22)"/><path class="cls-1" d="M1417.78,323.11a5.95,5.95,0,1,1-6-5.94,6,6,0,0,1,6,5.94Zm0,0" transform="translate(-1394 -311.22)"/><g class="cls-7"><path class="cls-8" d="M1394,335a14.44,14.44,0,1,1,28.87,0H1422a13.59,13.59,0,1,0-27.17,0Zm0,0" transform="translate(-1394 -311.22)"/></g><path class="cls-9" d="M1406.76,321.37c.34,0,.27-.6-.07-.56s-.26.61.07.56m0-.1c.2,0,.15-.38,0-.35s-.16.37,0,.35" transform="translate(-1394 -311.22)"/><path class="cls-9" d="M1407.22,321.32h.11l0-.21.23,0a.18.18,0,1,0,0-.35l-.33,0Zm.09-.32h.21a.08.08,0,1,0,0-.15l-.21,0Zm0,0" transform="translate(-1394 -311.22)"/><path class="cls-5" d="M1407.7,321.29c0-.08,0-.26-.14-.25h-.15c.18,0,.19.17.2.25" transform="translate(-1394 -311.22)"/><path class="cls-9" d="M1407.94,321.28h.27a.24.24,0,0,0,.24-.24V321a.25.25,0,0,0-.25-.24h-.27Zm.1-.11h.16a.16.16,0,0,0,.15-.16V321a.16.16,0,0,0-.16-.15H1408Zm0,0" transform="translate(-1394 -311.22)"/><path class="cls-5" d="M1408.66,321.27l.51,0v-.11h-.41V321l.32,0v-.1h-.32v-.12l.39,0v-.11h-.48Zm0,0" transform="translate(-1394 -311.22)"/><path class="cls-5" d="M1409.38,321.3h.1l0-.39.08.4h.09l.14-.38,0,.39h.1l0-.57h-.15l-.14.38-.08-.4h-.14Zm0,0" transform="translate(-1394 -311.22)"/><path class="cls-5" d="M1410.55,321.43l.42.08,0-.1-.33-.06,0-.12.26,0v-.09l-.26-.05,0-.09.31.06,0-.1-.41-.07Zm0,0" transform="translate(-1394 -311.22)"/><path class="cls-9" d="M1411.63,321.65l.1,0,0-.2.22,0a.18.18,0,1,0,.09-.34l-.31-.08Zm.18-.28.21.05c.09,0,.13-.12,0-.14l-.21,0Zm0,0" transform="translate(-1394 -311.22)"/><path class="cls-9" d="M1412.32,321.83l.1,0,.06-.2.22.07a.18.18,0,0,0,.11-.34l-.31-.1Zm.2-.27.2.07a.07.07,0,1,0,0-.14l-.21-.07Zm0,0" transform="translate(-1394 -311.22)"/><path class="cls-5" d="M1412.78,322c0-.08.08-.25,0-.29l-.14,0c.17.05.11.22.09.3" transform="translate(-1394 -311.22)"/><path class="cls-9" d="M1413.24,322.14c.32.12.52-.41.2-.53s-.51.41-.2.53m0-.1c.19.07.31-.26.12-.33s-.31.26-.12.33" transform="translate(-1394 -311.22)"/><g class="cls-10"><path class="cls-9" d="M1413.91,322.41c.31.14.54-.38.23-.52s-.54.39-.23.52m0-.1c.18.08.33-.24.14-.32s-.32.24-.14.32" transform="translate(-1394 -311.22)"/></g><path class="cls-5" d="M1414.06,322.17l.2.08,0,.08-.19-.09Zm0,0" transform="translate(-1394 -311.22)"/><path class="cls-5" d="M1414.18,322.22l.08,0-.12.26-.07,0Zm0,0" transform="translate(-1394 -311.22)"/><path class="cls-9" d="M1414.33,322.6l.1,0,.09-.19.2.1a.18.18,0,1,0,.16-.32l-.29-.14Zm.24-.23.19.09a.07.07,0,1,0,.07-.13l-.2-.09Zm0,0" transform="translate(-1394 -311.22)"/><path class="cls-5" d="M1414.76,322.82c0-.08.12-.24,0-.29l-.14-.07c.16.08.08.24,0,.31" transform="translate(-1394 -311.22)"/><path class="cls-5" d="M1415,322.93l.45.25,0-.09-.36-.21.07-.12.28.16,0-.09-.28-.16.06-.1.33.19.06-.09-.43-.24Zm0,0" transform="translate(-1394 -311.22)"/><path class="cls-5" d="M1415.8,323.2c0,.05,0,.1.07.15s.11,0,.13,0-.29-.24-.18-.41.25,0,.32,0,.16.14.08.25l-.1-.06s0-.1-.06-.14-.1-.05-.13,0,.3.23.19.4-.22.07-.31,0-.19-.17-.12-.29Zm0,0" transform="translate(-1394 -311.22)"/><path class="cls-5" d="M1416.41,323.6s0,.11.06.15.11.05.13,0-.28-.25-.16-.42.26,0,.32,0a.19.19,0,0,1,.07.26l-.1-.07c0-.05,0-.1-.06-.14s-.09-.06-.12,0,.28.25.17.41-.22.06-.31,0-.19-.17-.11-.29Zm0,0" transform="translate(-1394 -311.22)"/><path class="cls-9" d="M1417,324.26c.27.21.62-.24.35-.45s-.61.23-.35.45m.07-.09c.15.13.37-.15.22-.27s-.38.15-.22.27" transform="translate(-1394 -311.22)"/><polyline class="cls-8" points="12.98 10.57 12.9 10.81 13.02 10.85"/><polyline class="cls-8" points="12.98 10.57 13.06 10.81 12.94 10.85"/><polyline class="cls-8" points="13.22 10.74 12.97 10.74 12.97 10.87"/><polyline class="cls-8" points="13.22 10.74 13.02 10.89 12.94 10.79"/><polyline class="cls-8" points="12.74 10.74 12.94 10.89 13.02 10.79"/><polyline class="cls-8" points="12.74 10.74 12.99 10.74 12.99 10.87"/><polyline class="cls-8" points="13.13 11.03 13.05 10.79 12.93 10.82"/><polyline class="cls-8" points="13.13 11.03 12.92 10.88 13 10.77"/><polyline class="cls-8" points="12.83 11.03 13.04 10.88 12.96 10.77"/><polyline class="cls-8" points="12.83 11.03 12.91 10.79 13.03 10.82"/><polyline class="cls-8" points="13.51 13.06 13.43 13.31 13.55 13.35"/><polyline class="cls-8" points="13.51 13.06 13.58 13.31 13.46 13.35"/><polyline class="cls-8" points="13.75 13.24 13.49 13.24 13.49 13.37"/><polyline class="cls-8" points="13.75 13.24 13.54 13.39 13.47 13.29"/><polyline class="cls-8" points="13.26 13.24 13.47 13.39 13.54 13.29"/><polyline class="cls-8" points="13.26 13.24 13.52 13.24 13.52 13.37"/><polyline class="cls-8" points="13.65 13.53 13.58 13.28 13.46 13.32"/><polyline class="cls-8" points="13.65 13.53 13.45 13.38 13.52 13.27"/><polyline class="cls-8" points="13.36 13.53 13.56 13.38 13.49 13.27"/><polyline class="cls-8" points="13.36 13.53 13.44 13.28 13.56 13.32"/><polyline class="cls-8" points="12.78 13.64 12.71 13.84 12.81 13.88"/><polyline class="cls-8" points="12.78 13.64 12.84 13.84 12.74 13.88"/><polyline class="cls-8" points="12.98 13.79 12.77 13.79 12.77 13.89"/><polyline class="cls-8" points="12.98 13.79 12.81 13.91 12.75 13.83"/><polyline class="cls-8" points="12.58 13.79 12.75 13.91 12.81 13.83"/><polyline class="cls-8" points="12.58 13.79 12.79 13.79 12.79 13.89"/><polyline class="cls-8" points="12.9 14.03 12.84 13.82 12.74 13.86"/><polyline class="cls-8" points="12.9 14.03 12.73 13.9 12.79 13.81"/><polyline class="cls-8" points="12.65 14.03 12.82 13.9 12.76 13.81"/><polyline class="cls-8" points="12.65 14.03 12.72 13.82 12.82 13.86"/><polyline class="cls-8" points="14.09 12.83 14.05 12.95 14.11 12.97"/><polyline class="cls-8" points="14.09 12.83 14.13 12.95 14.07 12.97"/><polyline class="cls-8" points="14.2 12.92 14.08 12.92 14.08 12.98"/><polyline class="cls-8" points="14.2 12.92 14.11 12.99 14.07 12.94"/><polyline class="cls-8" points="13.97 12.92 14.07 12.99 14.11 12.94"/><polyline class="cls-8" points="13.97 12.92 14.09 12.92 14.09 12.98"/><polyline class="cls-8" points="14.16 13.05 14.12 12.94 14.06 12.96"/><polyline class="cls-8" points="14.16 13.05 14.06 12.98 14.1 12.93"/><polyline class="cls-8" points="14.02 13.05 14.12 12.98 14.08 12.93"/><polyline class="cls-8" points="14.02 13.05 14.05 12.94 14.11 12.96"/><polyline class="cls-8" points="14.74 13.7 14.68 13.9 14.78 13.93"/><polyline class="cls-8" points="14.74 13.7 14.81 13.9 14.71 13.93"/><polyline class="cls-8" points="14.95 13.85 14.73 13.85 14.73 13.95"/><polyline class="cls-8" points="14.95 13.85 14.77 13.97 14.71 13.88"/><polyline class="cls-8" points="14.54 13.85 14.71 13.97 14.78 13.88"/><polyline class="cls-8" points="14.54 13.85 14.75 13.85 14.75 13.95"/><polyline class="cls-8" points="14.87 14.08 14.8 13.88 14.7 13.91"/><polyline class="cls-8" points="14.87 14.08 14.7 13.96 14.76 13.87"/><polyline class="cls-8" points="14.62 14.08 14.79 13.96 14.73 13.87"/><polyline class="cls-8" points="14.62 14.08 14.68 13.88 14.79 13.91"/><polyline class="cls-8" points="14.56 14.33 14.51 14.49 14.59 14.52"/><polyline class="cls-8" points="14.56 14.33 14.62 14.49 14.54 14.52"/><polyline class="cls-8" points="14.73 14.45 14.56 14.45 14.56 14.53"/><polyline class="cls-8" points="14.73 14.45 14.59 14.55 14.54 14.48"/><polyline class="cls-8" points="14.4 14.45 14.54 14.55 14.59 14.48"/><polyline class="cls-8" points="14.4 14.45 14.57 14.45 14.57 14.53"/><polyline class="cls-8" points="14.66 14.64 14.61 14.48 14.53 14.5"/><polyline class="cls-8" points="14.66 14.64 14.53 14.54 14.58 14.47"/><polyline class="cls-8" points="14.46 14.64 14.6 14.54 14.55 14.47"/><polyline class="cls-8" points="14.46 14.64 14.52 14.48 14.6 14.5"/><polyline class="cls-8" points="19.68 9.79 19.6 10.03 19.72 10.07"/><polyline class="cls-8" points="19.68 9.79 19.75 10.03 19.63 10.07"/><polyline class="cls-8" points="19.92 9.97 19.66 9.97 19.66 10.09"/><polyline class="cls-8" points="19.92 9.97 19.71 10.12 19.64 10.01"/><polyline class="cls-8" points="19.43 9.97 19.64 10.12 19.71 10.01"/><polyline class="cls-8" points="19.43 9.97 19.69 9.97 19.69 10.09"/><polyline class="cls-8" points="19.83 10.25 19.75 10.01 19.63 10.05"/><polyline class="cls-8" points="19.83 10.25 19.62 10.1 19.7 10"/><polyline class="cls-8" points="19.53 10.25 19.73 10.1 19.66 10"/><polyline class="cls-8" points="19.53 10.25 19.61 10.01 19.73 10.05"/><polyline class="cls-8" points="22 13.72 21.92 13.96 22.04 14"/><polyline class="cls-8" points="22 13.72 22.08 13.96 21.95 14"/><polyline class="cls-8" points="22.24 13.9 21.98 13.9 21.98 14.02"/><polyline class="cls-8" points="22.24 13.9 22.03 14.05 21.96 13.94"/><polyline class="cls-8" points="21.75 13.9 21.96 14.05 22.04 13.94"/><polyline class="cls-8" points="21.75 13.9 22.01 13.9 22.01 14.02"/><polyline class="cls-8" points="22.15 14.18 22.07 13.94 21.95 13.98"/><polyline class="cls-8" points="22.15 14.18 21.94 14.03 22.02 13.93"/><polyline class="cls-8" points="21.85 14.18 22.05 14.03 21.98 13.93"/><polyline class="cls-8" points="21.85 14.18 21.93 13.94 22.05 13.98"/><polyline class="cls-8" points="22.82 13.86 22.77 14.02 22.85 14.05"/><polyline class="cls-8" points="22.82 13.86 22.88 14.02 22.79 14.05"/><polyline class="cls-8" points="22.98 13.98 22.81 13.98 22.81 14.06"/><polyline class="cls-8" points="22.98 13.98 22.85 14.08 22.8 14.01"/><polyline class="cls-8" points="22.66 13.98 22.8 14.08 22.85 14.01"/><polyline class="cls-8" points="22.66 13.98 22.83 13.98 22.83 14.06"/><polyline class="cls-8" points="22.92 14.17 22.87 14.01 22.79 14.03"/><polyline class="cls-8" points="22.92 14.17 22.79 14.07 22.83 14"/><polyline class="cls-8" points="22.72 14.17 22.86 14.07 22.81 14"/><polyline class="cls-8" points="22.72 14.17 22.77 14.01 22.86 14.03"/><polyline class="cls-8" points="22.24 14.29 22.17 14.49 22.27 14.52"/><polyline class="cls-8" points="22.24 14.29 22.3 14.49 22.2 14.52"/><polyline class="cls-8" points="22.44 14.44 22.23 14.44 22.23 14.54"/><polyline class="cls-8" points="22.44 14.44 22.27 14.56 22.21 14.47"/><polyline class="cls-8" points="22.04 14.44 22.21 14.56 22.27 14.47"/><polyline class="cls-8" points="22.04 14.44 22.25 14.44 22.25 14.54"/><polyline class="cls-8" points="22.36 14.67 22.3 14.47 22.2 14.5"/><polyline class="cls-8" points="22.36 14.67 22.19 14.55 22.25 14.46"/><polyline class="cls-8" points="22.11 14.67 22.29 14.55 22.23 14.46"/><polyline class="cls-8" points="22.11 14.67 22.18 14.47 22.28 14.5"/><polyline class="cls-8" points="20.81 15.53 20.74 15.73 20.84 15.77"/><polyline class="cls-8" points="20.81 15.53 20.87 15.73 20.77 15.77"/><polyline class="cls-8" points="21.01 15.68 20.8 15.68 20.8 15.79"/><polyline class="cls-8" points="21.01 15.68 20.84 15.8 20.78 15.72"/><polyline class="cls-8" points="20.61 15.68 20.78 15.8 20.84 15.72"/><polyline class="cls-8" points="20.61 15.68 20.82 15.68 20.82 15.79"/><polyline class="cls-8" points="20.93 15.92 20.87 15.72 20.77 15.75"/><polyline class="cls-8" points="20.93 15.92 20.76 15.79 20.82 15.71"/><polyline class="cls-8" points="20.68 15.92 20.86 15.79 20.79 15.71"/><polyline class="cls-8" points="20.68 15.92 20.75 15.72 20.85 15.75"/><polyline class="cls-8" points="20.8 16.18 20.75 16.34 20.83 16.36"/><polyline class="cls-8" points="20.8 16.18 20.85 16.34 20.77 16.36"/><polyline class="cls-8" points="20.96 16.29 20.79 16.29 20.79 16.38"/><polyline class="cls-8" points="20.96 16.29 20.82 16.39 20.77 16.32"/><polyline class="cls-8" points="20.64 16.29 20.78 16.39 20.83 16.32"/><polyline class="cls-8" points="20.64 16.29 20.81 16.29 20.81 16.38"/><polyline class="cls-8" points="20.9 16.48 20.85 16.32 20.77 16.35"/><polyline class="cls-8" points="20.9 16.48 20.76 16.38 20.81 16.31"/><polyline class="cls-8" points="20.7 16.48 20.84 16.38 20.79 16.31"/><polyline class="cls-8" points="20.7 16.48 20.75 16.32 20.83 16.35"/><polyline class="cls-8" points="21.4 15.11 21.35 15.27 21.43 15.29"/><polyline class="cls-8" points="21.4 15.11 21.45 15.27 21.37 15.29"/><polyline class="cls-8" points="21.56 15.22 21.39 15.22 21.39 15.31"/><polyline class="cls-8" points="21.56 15.22 21.42 15.32 21.37 15.26"/><polyline class="cls-8" points="21.24 15.22 21.38 15.32 21.43 15.26"/><polyline class="cls-8" points="21.24 15.22 21.41 15.22 21.41 15.31"/><polyline class="cls-8" points="21.5 15.41 21.45 15.25 21.36 15.28"/><polyline class="cls-8" points="21.5 15.41 21.36 15.31 21.41 15.25"/><polyline class="cls-8" points="21.3 15.41 21.44 15.31 21.39 15.25"/><polyline class="cls-8" points="21.3 15.41 21.35 15.25 21.43 15.28"/><polyline class="cls-8" points="21.88 14.77 21.81 14.97 21.91 15"/><polyline class="cls-8" points="21.88 14.77 21.94 14.97 21.84 15"/><polyline class="cls-8" points="22.08 14.91 21.87 14.91 21.87 15.02"/><polyline class="cls-8" points="22.08 14.91 21.91 15.04 21.84 14.95"/><polyline class="cls-8" points="21.67 14.91 21.85 15.04 21.91 14.95"/><polyline class="cls-8" points="21.67 14.91 21.89 14.91 21.89 15.02"/><polyline class="cls-8" points="22 15.15 21.93 14.95 21.83 14.98"/><polyline class="cls-8" points="22 15.15 21.83 15.02 21.89 14.94"/><polyline class="cls-8" points="21.75 15.15 21.92 15.02 21.86 14.94"/><polyline class="cls-8" points="21.75 15.15 21.82 14.95 21.92 14.98"/><polyline class="cls-8" points="20.78 14.99 20.73 15.15 20.81 15.18"/><polyline class="cls-8" points="20.78 14.99 20.84 15.15 20.76 15.18"/><polyline class="cls-8" points="20.95 15.11 20.78 15.11 20.78 15.2"/><polyline class="cls-8" points="20.95 15.11 20.81 15.21 20.76 15.14"/><polyline class="cls-8" points="20.62 15.11 20.76 15.21 20.81 15.14"/><polyline class="cls-8" points="20.62 15.11 20.79 15.11 20.79 15.2"/><polyline class="cls-8" points="20.88 15.3 20.83 15.14 20.75 15.17"/><polyline class="cls-8" points="20.88 15.3 20.75 15.2 20.8 15.13"/><polyline class="cls-8" points="20.68 15.3 20.82 15.2 20.77 15.13"/><polyline class="cls-8" points="20.68 15.3 20.74 15.14 20.82 15.17"/><polyline class="cls-8" points="15.57 11.92 15.5 12.12 15.6 12.15"/><polyline class="cls-8" points="15.57 11.92 15.63 12.12 15.53 12.15"/><polyline class="cls-8" points="15.77 12.06 15.56 12.06 15.56 12.17"/><polyline class="cls-8" points="15.77 12.06 15.6 12.19 15.54 12.1"/><polyline class="cls-8" points="15.37 12.06 15.54 12.19 15.6 12.1"/><polyline class="cls-8" points="15.37 12.06 15.58 12.06 15.58 12.17"/><polyline class="cls-8" points="15.69 12.3 15.63 12.1 15.53 12.13"/><polyline class="cls-8" points="15.69 12.3 15.52 12.18 15.58 12.09"/><polyline class="cls-8" points="15.44 12.3 15.62 12.18 15.55 12.09"/><polyline class="cls-8" points="15.44 12.3 15.51 12.1 15.61 12.13"/><polyline class="cls-8" points="19.45 11.42 19.4 11.58 19.48 11.61"/><polyline class="cls-8" points="19.45 11.42 19.5 11.58 19.42 11.61"/><polyline class="cls-8" points="19.61 11.54 19.44 11.54 19.44 11.62"/><polyline class="cls-8" points="19.61 11.54 19.47 11.64 19.42 11.57"/><polyline class="cls-8" points="19.29 11.54 19.43 11.64 19.48 11.57"/><polyline class="cls-8" points="19.29 11.54 19.46 11.54 19.46 11.62"/><polyline class="cls-8" points="19.55 11.73 19.5 11.56 19.42 11.59"/><polyline class="cls-8" points="19.55 11.73 19.41 11.63 19.46 11.56"/><polyline class="cls-8" points="19.35 11.73 19.49 11.63 19.44 11.56"/><polyline class="cls-8" points="19.35 11.73 19.4 11.56 19.48 11.59"/><polyline class="cls-8" points="17.83 14.3 17.75 14.54 17.88 14.58"/><polyline class="cls-8" points="17.83 14.3 17.91 14.54 17.79 14.58"/><polyline class="cls-8" points="18.07 14.48 17.82 14.48 17.82 14.61"/><polyline class="cls-8" points="18.07 14.48 17.87 14.63 17.79 14.53"/><polyline class="cls-8" points="17.59 14.48 17.8 14.63 17.87 14.53"/><polyline class="cls-8" points="17.59 14.48 17.84 14.48 17.84 14.61"/><polyline class="cls-8" points="17.98 14.76 17.9 14.52 17.78 14.56"/><polyline class="cls-8" points="17.98 14.76 17.78 14.61 17.85 14.51"/><polyline class="cls-8" points="17.68 14.76 17.89 14.61 17.81 14.51"/><polyline class="cls-8" points="17.68 14.76 17.76 14.52 17.88 14.56"/><polyline class="cls-8" points="18.52 13.16 18.45 13.37 18.55 13.4"/><polyline class="cls-8" points="18.52 13.16 18.59 13.37 18.48 13.4"/><polyline class="cls-8" points="18.72 13.31 18.51 13.31 18.51 13.42"/><polyline class="cls-8" points="18.72 13.31 18.55 13.44 18.49 13.35"/><polyline class="cls-8" points="18.32 13.31 18.49 13.44 18.55 13.35"/><polyline class="cls-8" points="18.32 13.31 18.53 13.31 18.53 13.42"/><polyline class="cls-8" points="18.64 13.55 18.58 13.35 18.48 13.38"/><polyline class="cls-8" points="18.64 13.55 18.47 13.42 18.54 13.34"/><polyline class="cls-8" points="18.39 13.55 18.57 13.42 18.5 13.34"/><polyline class="cls-8" points="18.39 13.55 18.46 13.35 18.56 13.38"/><polyline class="cls-8" points="17.83 12.63 17.77 12.83 17.87 12.87"/><polyline class="cls-8" points="17.83 12.63 17.9 12.83 17.8 12.87"/><polyline class="cls-8" points="18.03 12.78 17.82 12.78 17.82 12.88"/><polyline class="cls-8" points="18.03 12.78 17.86 12.9 17.8 12.82"/><polyline class="cls-8" points="17.63 12.78 17.8 12.9 17.86 12.82"/><polyline class="cls-8" points="17.63 12.78 17.84 12.78 17.84 12.88"/><polyline class="cls-8" points="17.96 13.01 17.89 12.81 17.79 12.85"/><polyline class="cls-8" points="17.96 13.01 17.79 12.89 17.85 12.8"/><polyline class="cls-8" points="17.71 13.01 17.88 12.89 17.82 12.8"/><polyline class="cls-8" points="17.71 13.01 17.77 12.81 17.87 12.85"/><polyline class="cls-8" points="17.23 13.21 17.18 13.37 17.26 13.39"/><polyline class="cls-8" points="17.23 13.21 17.29 13.37 17.21 13.39"/><polyline class="cls-8" points="17.39 13.32 17.23 13.32 17.23 13.41"/><polyline class="cls-8" points="17.39 13.32 17.26 13.42 17.21 13.36"/><polyline class="cls-8" points="17.07 13.32 17.21 13.42 17.26 13.36"/><polyline class="cls-8" points="17.07 13.32 17.24 13.32 17.24 13.41"/><polyline class="cls-8" points="17.33 13.51 17.28 13.35 17.2 13.38"/><polyline class="cls-8" points="17.33 13.51 17.2 13.41 17.25 13.35"/><polyline class="cls-8" points="17.13 13.51 17.27 13.41 17.22 13.35"/><polyline class="cls-8" points="17.13 13.51 17.19 13.35 17.27 13.38"/><polyline class="cls-8" points="17.53 13.67 17.5 13.78 17.55 13.8"/><polyline class="cls-8" points="17.53 13.67 17.57 13.78 17.51 13.8"/><polyline class="cls-8" points="17.65 13.75 17.53 13.75 17.53 13.81"/><polyline class="cls-8" points="17.65 13.75 17.55 13.82 17.52 13.77"/><polyline class="cls-8" points="17.42 13.75 17.52 13.82 17.55 13.77"/><polyline class="cls-8" points="17.42 13.75 17.54 13.75 17.54 13.81"/><polyline class="cls-8" points="17.6 13.89 17.57 13.77 17.51 13.79"/><polyline class="cls-8" points="17.6 13.89 17.51 13.82 17.54 13.77"/><polyline class="cls-8" points="17.46 13.89 17.56 13.82 17.52 13.77"/><polyline class="cls-8" points="17.46 13.89 17.5 13.77 17.56 13.79"/><polyline class="cls-8" points="19.61 15.68 19.55 15.88 19.65 15.91"/><polyline class="cls-8" points="19.61 15.68 19.68 15.88 19.58 15.91"/><polyline class="cls-8" points="19.81 15.83 19.6 15.83 19.6 15.93"/><polyline class="cls-8" points="19.81 15.83 19.64 15.95 19.58 15.87"/><polyline class="cls-8" points="19.41 15.83 19.58 15.95 19.64 15.87"/><polyline class="cls-8" points="19.41 15.83 19.62 15.83 19.62 15.93"/><polyline class="cls-8" points="19.74 16.06 19.67 15.86 19.57 15.89"/><polyline class="cls-8" points="19.74 16.06 19.57 15.94 19.63 15.85"/><polyline class="cls-8" points="19.49 16.06 19.66 15.94 19.6 15.85"/><polyline class="cls-8" points="19.49 16.06 19.55 15.86 19.65 15.89"/><polyline class="cls-8" points="20.12 15.2 20.07 15.36 20.15 15.38"/><polyline class="cls-8" points="20.12 15.2 20.17 15.36 20.09 15.38"/><polyline class="cls-8" points="20.28 15.31 20.11 15.31 20.11 15.4"/><polyline class="cls-8" points="20.28 15.31 20.14 15.41 20.09 15.34"/><polyline class="cls-8" points="19.96 15.31 20.1 15.41 20.15 15.34"/><polyline class="cls-8" points="19.96 15.31 20.13 15.31 20.13 15.4"/><polyline class="cls-8" points="20.22 15.5 20.17 15.34 20.09 15.37"/><polyline class="cls-8" points="20.22 15.5 20.08 15.4 20.13 15.33"/><polyline class="cls-8" points="20.02 15.5 20.16 15.4 20.11 15.33"/><polyline class="cls-8" points="20.02 15.5 20.07 15.34 20.16 15.37"/><polyline class="cls-8" points="19.14 15.05 19.09 15.21 19.17 15.24"/><polyline class="cls-8" points="19.14 15.05 19.2 15.21 19.11 15.24"/><polyline class="cls-8" points="19.3 15.17 19.13 15.17 19.13 15.25"/><polyline class="cls-8" points="19.3 15.17 19.17 15.27 19.12 15.2"/><polyline class="cls-8" points="18.98 15.17 19.12 15.27 19.17 15.2"/><polyline class="cls-8" points="18.98 15.17 19.15 15.17 19.15 15.25"/><polyline class="cls-8" points="19.24 15.36 19.19 15.2 19.11 15.22"/><polyline class="cls-8" points="19.24 15.36 19.11 15.26 19.16 15.19"/><polyline class="cls-8" points="19.04 15.36 19.18 15.26 19.13 15.19"/><polyline class="cls-8" points="19.04 15.36 19.09 15.2 19.18 15.22"/><polyline class="cls-8" points="15.45 14.79 15.37 15.03 15.49 15.07"/><polyline class="cls-8" points="15.45 14.79 15.53 15.03 15.4 15.07"/><polyline class="cls-8" points="15.69 14.96 15.43 14.96 15.43 15.09"/><polyline class="cls-8" points="15.69 14.96 15.48 15.11 15.41 15.01"/><polyline class="cls-8" points="15.2 14.96 15.41 15.11 15.48 15.01"/><polyline class="cls-8" points="15.2 14.96 15.46 14.96 15.46 15.09"/><polyline class="cls-8" points="15.6 15.25 15.52 15.01 15.4 15.04"/><polyline class="cls-8" points="15.6 15.25 15.39 15.1 15.46 15"/><polyline class="cls-8" points="15.3 15.25 15.5 15.1 15.43 15"/><polyline class="cls-8" points="15.3 15.25 15.38 15.01 15.5 15.04"/><polyline class="cls-8" points="17.83 16.45 17.81 16.53 17.85 16.55"/><polyline class="cls-8" points="17.83 16.45 17.86 16.53 17.82 16.55"/><polyline class="cls-8" points="17.91 16.51 17.83 16.51 17.83 16.55"/><polyline class="cls-8" points="17.91 16.51 17.84 16.56 17.82 16.53"/><polyline class="cls-8" points="17.75 16.51 17.82 16.56 17.84 16.53"/><polyline class="cls-8" points="17.75 16.51 17.84 16.51 17.84 16.55"/><polyline class="cls-8" points="17.88 16.61 17.86 16.53 17.82 16.54"/><polyline class="cls-8" points="17.88 16.61 17.81 16.56 17.84 16.52"/><polyline class="cls-8" points="17.78 16.61 17.85 16.56 17.83 16.52"/><polyline class="cls-8" points="17.78 16.61 17.81 16.53 17.85 16.54"/></svg>