<svg id="_001-Home" data-name="001-Home" xmlns="http://www.w3.org/2000/svg" viewBox="0 0 66.76 66.76"><defs><style>.cls-1{fill:#fff;}</style></defs><path class="cls-1" d="M1972.44,118.93c.13-.15.08-.41.36-.47a11.83,11.83,0,0,1,1.13,1.66,2,2,0,0,0,2,1,19,19,0,0,0,3.44-.68c1.93-.51,3.78-1.29,5.67-1.91a23.9,23.9,0,0,1,5.3-1.17,7.42,7.42,0,0,1,5.76,1.68,8.65,8.65,0,0,1,2.66,4.34,15.29,15.29,0,0,1,.51,5.21,8.54,8.54,0,0,1-1.35,4.29c-.16.23-.38.4-.55.64a1.48,1.48,0,0,0,1.13-.13,11,11,0,0,0,3.72-3.17,34.64,34.64,0,0,0,4.1-7,72.81,72.81,0,0,0,4.63-14.42,99.31,99.31,0,0,0,1.72-9.87q.24-1.89.36-3.81c.09-1.47.15-2.94.22-4.41,0-1.23.07-2.46,0-3.69a51.53,51.53,0,0,0-1.25-11,17.42,17.42,0,0,0-2.32-5.56c-.25-.37-.56-.72-.82-1.09s-.6-.33-.92-.4a34.78,34.78,0,0,0-3.91-.69.22.22,0,0,1-.19-.07,2,2,0,0,1,1.62-.51,36,36,0,0,1,7.49,2.08,33.65,33.65,0,0,1,17.88,17.24,31.85,31.85,0,0,1,2.38,7.82c.17,1,.3,2,.41,3.06a28,28,0,0,1,.07,5.26A33.51,33.51,0,0,1,2014,131.41a34.44,34.44,0,0,1-8.17,2.41,32,32,0,0,1-7.69.35,32.71,32.71,0,0,1-10.58-2.55,33.23,33.23,0,0,1-11.71-8.32A29,29,0,0,1,1972.44,118.93Z" transform="translate(-1967.11 -67.5)"/><path class="cls-1" d="M1971.34,115.77c0-.14-.07-.25-.26-.27a1.12,1.12,0,0,1-.95-.77,33.18,33.18,0,0,1-2.47-8c-.18-1-.3-2-.42-3.06a33.58,33.58,0,0,1-.06-5.21,28.76,28.76,0,0,1,.62-4.4,33.34,33.34,0,0,1,23.59-25.45,30.31,30.31,0,0,1,5.17-1,1.83,1.83,0,0,0,.25-.06,1.21,1.21,0,0,1,1.62,1,9.36,9.36,0,0,1,0,3.5,40.86,40.86,0,0,1-2,7.35,86,86,0,0,1-5.2,11.55c-1.29,2.49-2.62,5-4.1,7.34a96.89,96.89,0,0,1-8.31,11.71,37.53,37.53,0,0,1-4,4.12A6.24,6.24,0,0,1,1971.34,115.77Z" transform="translate(-1967.11 -67.5)"/></svg>