<svg id="_001-Home" data-name="001-Home" xmlns="http://www.w3.org/2000/svg" viewBox="0 0 21.51 21.38"><defs><style>.cls-1{fill:#333;}</style></defs><path class="cls-1" d="M1530.6,514.49c-4.07,0-8.13-2.89-8.85-8.66,1.17-8.81,10.15-10.83,14.9-6.05h0a8.69,8.69,0,0,1,0,12.19A8.5,8.5,0,0,1,1530.6,514.49Zm0-13.88c-2.48,0-4.95,1.75-5.42,5.25.92,7.06,9.94,7,10.83,0C1535.53,502.36,1533.06,500.61,1530.6,500.61Z" transform="translate(-1521.75 -497.26)"/><polygon class="cls-1" points="19.16 21.38 12.54 14.71 14.9 12.34 21.51 19.01 19.16 21.38"/></svg>