<svg xmlns="http://www.w3.org/2000/svg" viewBox="0 0 77.41 78.01"><defs><style>.cls-1{isolation:isolate;}.cls-2{fill:#efefef;mix-blend-mode:multiply;}.cls-3{fill:#fff;}.cls-4{fill:#ededec;}</style></defs><g class="cls-1"><g id="_001-Home" data-name="001-Home"><path class="cls-2" d="M1425.06,374h0a38.85,38.85,0,0,1-38.71-39h0a38.86,38.86,0,0,1,38.71-39h0a38.85,38.85,0,0,1,38.7,39h0A38.85,38.85,0,0,1,1425.06,374Z" transform="translate(-1386.35 -295.97)"/><path class="cls-3" d="M1425.06,364.52h0A29.44,29.44,0,0,1,1395.74,335h0a29.43,29.43,0,0,1,29.32-29.54h0A29.42,29.42,0,0,1,1454.37,335h0A29.43,29.43,0,0,1,1425.06,364.52Z" transform="translate(-1386.35 -295.97)"/><path class="cls-4" d="M1436.32,327.58a11.4,11.4,0,1,1-11.39-11.41A11.4,11.4,0,0,1,1436.32,327.58Z" transform="translate(-1386.35 -295.97)"/><path class="cls-4" d="M1430.46,342h-10.83a15.31,15.31,0,0,0-15.3,14.65,28.67,28.67,0,0,0,41.46.33A15.33,15.33,0,0,0,1430.46,342Z" transform="translate(-1386.35 -295.97)"/></g></g></svg>