<svg id="Login" xmlns="http://www.w3.org/2000/svg" viewBox="0 0 24.44 30"><defs><style>.cls-1{fill:#fff;opacity:0.93;}</style></defs><path class="cls-1" d="M1381.52,588.44v-3.12c0-4.44-4-8.05-8.89-8.05s-8.88,3.61-8.88,8.05v3.12a4,4,0,0,0-3.34,4v10.85a4,4,0,0,0,4,4h16.41a4,4,0,0,0,4-4V592.39A4,4,0,0,0,1381.52,588.44Zm-16.66-3.12c0-3.83,3.48-6.94,7.77-6.94s7.78,3.11,7.78,6.94v3.06h-15.55Zm18.88,17.93a2.91,2.91,0,0,1-2.9,2.91h-16.41a2.92,2.92,0,0,1-2.91-2.91V592.39a2.91,2.91,0,0,1,2.91-2.9h16.41a2.9,2.9,0,0,1,2.9,2.9Z" transform="translate(-1360.41 -577.27)"/><path class="cls-1" d="M1372.63,592.82a2.23,2.23,0,0,0-2.22,2.22v3.34a2.23,2.23,0,0,0,4.45,0V595A2.23,2.23,0,0,0,1372.63,592.82Zm1.11,5.56a1.11,1.11,0,1,1-2.22,0V595a1.11,1.11,0,1,1,2.22,0Z" transform="translate(-1360.41 -577.27)"/></svg>